<?xml version="1.0" encoding="utf-8"?>
<!-- Generator: Adobe Illustrator 21.0.2, SVG Export Plug-In . SVG Version: 6.00 Build 0)  -->
<svg version="1.1" id="Layer_1" xmlns="http://www.w3.org/2000/svg" xmlns:xlink="http://www.w3.org/1999/xlink" x="0px" y="0px"
	 viewBox="0 0 1400 1400" style="enable-background:new 0 0 1400 1400;" xml:space="preserve">
<style type="text/css">
	.st0{fill:#FFFFFF;}
</style>
<g>
	<path class="st0" d="M3.5,1374.1c0-455.5,0-911,0-1366.6c48.3,0.5,96.7,1,145.4,1c403.4,0,806.3,0,1209.7-0.5
		c17.1,0,26.1,3.6,26.1,27.6c-0.4,436.6-0.4,873.2,0,1309.2c0,17.4-3.4,26.6-19.7,28.2c-6.4,0.5-12,13.3-18,21
		c-436.3,0-872.6,0-1308.9,0C36,1364.4,18,1373.6,3.5,1374.1z M694.7,31.1L694.7,31.1c-212.2,0-424.8,0-636.9,0
		c-37.2,0-37.6,0-37.2,46.1c0.9,138.2,2.1,276.4,2.6,414.1c0.4,272.8,0,545.6,0,818.4c0,44,0,44,35.5,44c425.6,0,850.8,0,1276.4,0
		c28.7,0,29.5-1,29.5-33.8c0-417.6,0-835.8,0-1253.5c0-34.8-0.4-35.3-30.4-35.3C1121.2,31.1,908.2,31.1,694.7,31.1z"/>
	<path d="M1346.6,1394.6c6-7.2,11.5-20,18-21c16.3-2,19.7-10.7,19.7-28.2c-0.4-436.6-0.4-873.2,0-1309.2c0-24.1-9-27.6-26.1-27.6
		C954.8,9.1,551.9,9.1,148.5,9.1c-48.3,0-96.7-1-145.4-1c6.4-1.5,12.8-5.1,19.2-5.1c352,0,704.5,0,1056.5,0c104.8,0,209.6,0,314.4,0
		c0,464.2,0,927.9,0,1392.2C1377.9,1394.6,1362.5,1394.6,1346.6,1394.6z"/>
	<path d="M3.5,1374.1c14.5-0.5,32.5-9.7,34.2,20.5c-11.5,0-22.7,0-34.2,0C3.5,1387.9,3.5,1380.8,3.5,1374.1z"/>
	<path d="M694.7,31.1c213,0,426,0,639.1,0c29.9,0,30.4,0,30.4,35.3c0,417.6,0,835.8,0,1253.5c0,32.8-0.9,33.8-29.5,33.8
		c-425.6,0-850.8,0-1276.4,0c-35.5,0-35.5-0.5-35.5-44c0-272.8,0.4-545.6,0-818.4c0-138.2-1.7-276.4-2.6-414.1
		c-0.4-45.6,0-45.6,37.2-46.1C270,31.1,482.6,31.1,694.7,31.1L694.7,31.1z M694.3,1085.4c159.6,0,319.1,0,478.7,0
		c31.7,0,31.7,0,31.7-38.9c0-80.9,0-161.7,0-243.1c0-137.2-0.4-274.3,0.4-412c0-23.5-6.4-32.2-26.1-30.7c-22.7,1.5-45.8,3.1-68.4,0
		c-71-10.2-127.5,17.4-173.2,83.9c-25.2,36.9-60.7,50.7-100.9,50.2c-80.4-1-161.3-4.6-241.3,1c-71.9,5.1-129.6-16.9-175.4-85
		c-18-26.6-43.2-46.6-73.1-48.1c-49.2-2.6-98.4-2-147.6-0.5c-5.6,0-13.3,10.7-15.8,17.9c-3,9.2-1.3,20-1.3,30.2
		c0,212.9,0,426.3,0,639.3c0,35.3,0,35.3,29.1,35.3C372.2,1085.4,533.5,1085.4,694.3,1085.4z M1298.7,576.2c0-4.1,0.4-8.2,0.4-12.3
		c10.3-1,20.1-2.6,30.4-3.1c13.3,0,19.7-6.7,19.7-23c-0.4-51.2-0.4-102.4,0-153.5c0-15.9-5.6-23.5-19.2-23
		c-29.9,0.5-59.9,0.5-89.8,0c-15.4-0.5-19.7,9.2-19.7,25.1c0,161.7,0,324,0,485.7c0,18.4,6,26.1,21.8,25.6
		c9.4-0.5,18.8,3.1,27.8,4.6c0,3.6-0.4,7.2-0.4,10.7c-9.8,1-20.1,2-29.9,2.6c-11.5,0.5-18.8,6.1-18.8,21.5
		c0,15.9,5.6,23.5,19.2,23.5c10.3,0,20.5,2.6,30.8,4.1c0,3.6,0,7.2,0,10.7c-9,1.5-18.4,4.1-27.4,4.1c-13.3,0-22.2,3.6-22.2,22
		s9,22.5,22.2,22.5c9.4,0,18.8,2.6,28.2,3.6c0,3.6-0.4,6.7-0.4,10.2c-7.7,1.5-15.4,3.6-23.1,4.1c-28.7,1-30.4,4.1-23.1,42.5
		c37.2,0,74.4,1,112.1-1c4.7,0,12.4-15.4,12.4-23.5c0.9-67,0-134.6,0.9-202.2c0-21.5-7.3-28.7-24.4-28.2c-8.6,0.5-17.1-3.1-25.7-5.1
		c0.4-3.6,0.4-7.2,0.9-10.2c9.4-1.5,18.8-3.6,27.8-3.6c14.1,0,21.4-5.6,21.4-23.5c-0.4-61.4-0.4-122.8,0-184.3
		c0-17.4-6.8-24.1-21-23.5C1318.4,580.3,1308.6,577.7,1298.7,576.2z M117.7,914c-0.4-4.1-0.9-8.2-1.3-12.3
		c9.4-1.5,19.2-4.1,28.7-3.6c15.4,0.5,21.4-6.7,21.4-25.6c-0.4-162.2-0.4-324,0-486.2c0-18.9-6.4-25.6-21.8-25.1
		c-27.8,1-55.6,1-83.4,0c-15.8-0.5-21.8,7.2-21.8,25.6c0,49.6,0,98.8-0.9,148.4c-0.4,18.4,6,26.1,21.4,25.6c9.4,0,18.8,3.1,28.2,4.6
		c0,3.6-0.4,7.2-0.4,10.7c-9,1.5-18.4,4.1-27.4,4.1c-15-0.5-22.2,6.1-21.8,25.1c0.4,60.4,0.4,121.3,0,181.7c0,17.9,6,24.6,20.5,24.6
		c9.8,0,19.2,2.6,29.1,4.1c0,3.6,0,7.2,0,10.7c-9,1.5-18,4.6-26.9,4.6c-16.3,0-22.7,8.2-22.7,27.6c0.4,66.5,0.4,133.1,0,199.6
		c0,19.4,5.1,28.2,22.2,27.6c28.7-1,56.9-0.5,85.6-0.5c12.4,0,20.5-4.1,20.1-21.5c0-17.4-7.7-21.5-20.5-21.5
		c-9.4,0-18.8-2.6-27.8-3.6c0-3.6,0-7.2,0.4-11.3c9-1,18.4-3.1,27.4-3.1c12,0,20.5-3.1,21-21c0.4-18.4-6.8-23.5-21-23.5
		c-9.4,0-18.8-2.6-28.7-4.1c0-4.1,0-7.7,0.4-11.8c10.3-1.5,21-3.6,31.2-3.6c12.8-0.5,17.5-7.7,17.5-22.5c0.4-15.4-5.6-22-17.5-22
		C137.8,915.5,127.5,915,117.7,914z M692.2,1103.9c-161.7,0-323.4,0.5-485.1-0.5c-19.7,0-26.1,7.2-25.7,30.7
		c1.3,57.3,1.3,114.1,0,171.5c-0.4,23,6,28.7,24.4,28.7c325.5-0.5,651.5-0.5,977,0c18.4,0,22.7-8.2,22.2-28.7
		c-0.9-55.3-0.4-111.1-0.4-166.3c0-35.3-0.4-35.8-29.5-35.8C1014.3,1103.9,853,1103.9,692.2,1103.9z M1254.2,1104.4
		c-1.3,6.1-2.6,8.7-2.1,10.7c13.7,68.6,26.5,137.7,41.5,205.8c5.6,24.6,25.7,12.8,38.9,12.3c5.6,0,15.8-12.8,15.8-20
		c1.3-63,0.9-125.9,0-188.9c0-6.7-7.7-18.4-12.4-18.9C1308.6,1103.4,1281.2,1104.4,1254.2,1104.4z M134,1103.9
		c-25.7,0-50,0.5-74.9-0.5c-15.8-0.5-21.4,6.7-21.4,25.1c0.4,58.9,0,117.2,0,176.1c0,13.8-0.9,29.7,16.3,28.7
		c15.4-1,35.1,9.7,41.1-21c12.4-63,25.7-125.4,38.5-188.4C134.8,1118.7,134,1113.1,134,1103.9z M693,390.9c47.1,0,94.1,0.5,141.2,0
		c26.5-0.5,39.8-11.8,47.5-41.5c9.8-37.4,10.3-75.7,0.4-113.1c-6.8-27.1-22.2-43.5-47.1-44c-94.1-0.5-188.2-0.5-282.3,0
		c-24.4,0-43.2,15.4-46.6,43c-4.3,34.8-5.6,71.1-2.1,105.9c3.8,37.4,20.5,49.6,52.2,49.6C601.9,390.9,647.3,390.9,693,390.9z
		 M291.4,122.2c-29.9,0-59.9,1-89.8-0.5c-22.2-1-19.2,15.9-19.2,31.7c0,16.4-2.1,32.2,19.7,32.2c59-1,118.5-1,177.5,0
		c19.7,0.5,21.8-12.3,21.8-30.7c0-18.9-0.4-33.8-21.8-32.8C349.5,123.2,320.5,122.2,291.4,122.2z M1094.3,185.7
		c29.9,0,59.5-0.5,89.4,0c17.5,0.5,22.2-9.7,21.4-28.2c-0.9-16.9,2.6-35.3-20.1-35.3c-60.3,0.5-120.6,0.5-180.9,0
		c-22.7-0.5-17.1,18.9-17.5,33.8c-0.4,15.4-2.1,31.2,18.4,30.2C1034.4,184.6,1064.3,185.7,1094.3,185.7z M400.4,365.3
		c0-21.5-0.9-39.9,0-58.3c0.9-18.9-5.6-25.6-21.4-25.1c-58.2,1-116.3,1-175,0.5c-15.8,0-23.1,5.6-23.1,26.1
		c-0.4,33.8-0.9,33.3,26.9,35.3C271.7,347.9,336.7,328.5,400.4,365.3z M985.2,357.1c34.6-5.1,65-11.3,95.8-13.3
		c33.4-2,67.2-1.5,100.5-0.5c21.4,1,23.5-12.8,24-33.8c0.4-21.5-6-28.2-23.5-28.2c-45.8,1-91.1,0.5-136.9,0.5
		c-64.6,0-64.6,0.5-58.2,77.8C986.9,360.7,987.3,361.2,985.2,357.1z M290.1,262.4C290.1,262.4,290.1,262.9,290.1,262.4
		c29.9,0,59.9-1,89.4,0.5c20.1,1,21-12.8,21-30.7s-2.1-28.7-20.5-28.2c-59.9,1-119.3,1-179.2,0c-21.4-0.5-19.2,15.4-20.1,31.7
		c-0.9,16.9,1.7,27.6,19.2,27.1C230.6,261.9,260.1,262.4,290.1,262.4z M1094.3,262.9c29.9,0,59.9-1,89.8,0.5c18,0.5,21-10.2,21-28.7
		c0-18.9-2.6-31.2-21.8-30.7c-59.9,1-119.8,0.5-179.7,0c-18.8,0-18,13.8-18,28.7c0.4,15.4-2.1,31.2,18.4,30.2
		C1034.4,261.9,1064.3,262.9,1094.3,262.9z M288.8,103.8c31.2,0,62.5-0.5,93.7,0c16.7,0.5,18.4-11.8,18-26.6
		c0-14.3,0.4-28.2-16.7-28.2c-62,0.5-123.6,0-185.6,0.5c-21,0-15,19.4-16.3,33.3c-1.3,15.4,3.8,21.5,17.1,21
		C228.9,103.3,258.9,103.8,288.8,103.8z M1096.4,49.5c-29.9,0-59.5,0.5-89.4-0.5c-16.3-0.5-21,9.2-21,26.6
		c0,18.4,3.8,28.7,21.4,28.7c59-0.5,118.1-1,176.7,0c18.4,0,20.1-11.8,20.5-29.2c0.4-18.9-5.6-26.1-21-25.6
		C1154.6,50,1125.5,49.5,1096.4,49.5z M1230.3,1105.4c-2.1,0-4.3,0.5-6,0.5c-1.3,9.2-3.8,18.4-3.8,27.6c-0.4,53.7,0,107,0,160.7
		c0,41.5,0.9,41.5,36.4,39.9c17.5-1,22.2-8.7,17.5-28.7c-12.8-59.4-24.4-118.7-36.8-178.1
		C1235.8,1119.7,1232.8,1113.1,1230.3,1105.4z M1284.6,185.7c15,0,29.9-0.5,44.9,0c18.8,1,20.1-13.3,20.1-30.2
		c0-16.4,2.1-33.8-19.2-33.3c-29.9,0.5-59.5,1-89.4,0c-22.2-0.5-20.1,16.9-20.5,34.3c-0.4,18.9,2.1,31.7,21.8,29.2
		C1255.9,184.1,1270.5,185.7,1284.6,185.7z M101.9,185.7L101.9,185.7c14.1,0,28.7-1,42.8,0c21.8,1.5,21-15.4,21.8-33.3
		c0.9-19.4-3.8-30.7-22.2-30.2c-27.8,1-55.6,1-83,0c-21.4-0.5-21.4,15.4-21.8,33.8c0,18.9,3.4,31.7,22.2,29.7
		C74.5,184.6,88.2,185.7,101.9,185.7z M1220.4,281.4c0,17.4-1.3,31.7,0.4,45.6c0.9,5.6,8.6,14.3,13.3,14.8c33.4,1,66.7,1,100.1,0.5
		c17.1-0.5,14.1-17.4,14.5-30.7c0.4-13.8,1.7-29.7-15-29.7C1297,281.4,1260.2,281.4,1220.4,281.4z M107,1334.2
		c17.5,0,28.7-0.5,40.2,0c13.7,1,19.2-5.6,18.8-22.5c-0.4-62.4,0-124.4-0.4-186.8c0-6.1-2.6-12.3-4.3-18.9c-2.6,0-5.1,0-7.7,0
		C138.7,1180.1,123.3,1253.8,107,1334.2z M102.7,342.8L102.7,342.8c15,0,29.9-1,44.9,0c18.4,1.5,19.2-11.8,18.4-27.6
		c-0.9-14.8,4.7-34.8-17.5-34.3c-29.9,0.5-59.9,0.5-89.4,0C42.4,280.3,39,292.1,39.4,309c0.4,16.4-1.7,34.3,18.8,33.8
		C72.8,342.8,87.8,342.8,102.7,342.8z M1283.8,262.9c15.4,0,31.2-0.5,46.6,0c18,1,18.8-12.8,18.8-28.2c0-16.4,0-31.2-19.2-30.7
		c-28.2,0.5-56.9,1.5-85.1,0c-20.5-1-25.2,9.2-25.2,31.7c-0.4,24.1,8.1,29.2,25.7,27.6C1258.1,261.9,1270.9,262.9,1283.8,262.9z
		 M103.2,262.9L103.2,262.9c14.1,0,28.2-1,42.8,0c18.4,1,20.1-12.3,20.5-29.7c0-17.4-2.1-30.2-20.5-29.7c-26.9,0.5-53.9,1-80.8,0
		c-17.5-0.5-26.1,5.1-26.1,28.7s6.4,32.8,26.1,30.7C77.5,261.9,90.3,262.9,103.2,262.9z M1284.6,103.8c15,0,29.9-0.5,44.9,0
		c16.7,1,20.1-9.7,20.1-27.1c0-16.4-2.1-28.7-19.2-28.2c-29.9,0.5-59.5,1-89.4,0c-16.7-0.5-20.5,9.7-20.5,27.1
		c0,16.4,2.6,28.7,19.7,27.6C1254.7,103.3,1269.6,103.8,1284.6,103.8z M103.2,104.3C103.2,103.8,103.2,103.8,103.2,104.3
		c15-0.5,29.9-1,44.9,0c16.3,0.5,18-11.8,18-26.6c0-14.3-0.4-27.6-17.1-27.6c-30.4,0.5-61.2,0.5-91.5,0c-18,0-18,14.3-18.4,29.2
		c-0.4,16.4,4.3,26.1,19.2,25.6C73.2,103.8,88.2,104.3,103.2,104.3z M929.1,423.1c2.6,1.5,5.1,2.6,7.3,4.1
		c11.1-18.4,26.5-35.8,32.1-56.3c5.6-21.5,0.9-47.1,1.3-70.6c0.4-15.4-6.8-18.9-17.5-17.9c-10.3,1-23.1-2-23.1,17.4
		C928.7,340.2,929.1,381.7,929.1,423.1z M457.8,426.2c0-42-0.4-78.8,0-115.7c0-16.4,0-29.7-19.2-29.7c-18,0-24,8.7-22.2,29.2
		c0.9,11.8,1.7,24.1,0,35.8C410.3,384.8,432.5,402.7,457.8,426.2z M913.3,287c-2.6,0-5.1-0.5-7.7-0.5c-0.9,8.2-0.9,16.9-3,24.6
		c-7.3,26.1-12.8,53.2-24,76.8c-9.4,20.5-14.1,60.4-2.6,82.4c34.2-12.3,37.2-16.9,37.2-58.3c0-33.3,0-66,0-99.3
		C913.3,304.4,913.3,295.7,913.3,287z M518.1,467.7c-2.6-25.1,1.3-54.3-8.6-72.7c-15.4-28.7-24-57.3-26.5-89.6
		c-0.4-6.1-2.1-11.8-3.4-17.4c-4.7,7.7-6,14.8-6,22c0,38.4-0.4,76.8,0,114.6C474,453.9,485.1,466.1,518.1,467.7z M686.2,442.6
		c0.9-17.4,1.3-33.8-20.1-33.8c-24,0-20.1,18.9-20.5,36.3c-0.4,17.4,0.4,31.2,20.5,31.2C687.9,476.9,687,461,686.2,442.6z
		 M814.1,442.6c-1.3,17.9-2.6,34.3,20.1,34.3c22.2,0,21-16.9,20.5-34.3c-0.4-15.4,4.3-33.3-18-33.8
		C814.1,408.3,811.5,422.6,814.1,442.6z M531.8,442.6c-0.4,16.9-1.7,34.8,21.4,34.3s18.8-19.4,19.2-35.8
		c0.9-18.4,0.4-33.3-21.4-32.8C530.5,408.8,531.3,424.2,531.8,442.6z M797.8,439.5c1.3-14.8,2.1-30.7-20.1-30.7s-21,16.4-20.5,33.8
		c0,17.4-1.7,34.3,20.5,34.3C800.4,476.9,798.7,460,797.8,439.5z M701.6,439c0,3.6,0,6.7,0,10.2c-0.9,16.4,1.7,28.2,19.2,28.2
		c16.7,0,23.5-8.2,21.8-27.6c-0.4-7.7,1.7-16.4-0.9-22.5c-2.6-6.7-8.1-15.9-13.3-16.9C705.4,405.2,701.6,410.4,701.6,439z
		 M633.1,405.2c-19.2,5.1-39.4,5.1-41.5,12.8c-4.7,15.9-1.7,36.3,3,53.2c1.3,4.6,27.4,5.6,28.2,3.6
		C627.6,454.9,629.3,433.4,633.1,405.2z M515.1,156.5c0.9-18.4,1.3-34.8-20.5-34.8c-20.1,0-21,14.3-21,31.7
		c0,16.9-0.9,32.2,20.1,32.2C512.5,186.2,516.8,174.9,515.1,156.5z M969.8,155.5c0.9-16.9,1.7-32.8-18.8-33.3
		c-19.2-0.5-22.7,11.8-22.2,30.7c0.4,16.4-1.7,32.8,19.7,33.3C967.6,186.2,971.5,174.4,969.8,155.5z M457.3,159.6
		c0-19.4,2.1-36.9-20.1-37.4c-18-0.5-22.2,10.2-21.4,28.7c0.4,16.9-2.6,35.3,20.1,35.3C453.9,185.7,459,176.4,457.3,159.6z
		 M913.3,157.5c0-17.9,4.3-36.9-19.2-35.8c-18.4,0.5-23.1,10.2-22.2,29.7c0.9,16.9-2.1,33.8,20.5,34.3
		C912,186.7,914.6,173.9,913.3,157.5z M969.8,232.7c1.7-17.4-0.9-28.7-19.2-28.7c-19.2-0.5-22.2,10.7-21.8,29.7
		c0.4,16.9,1.3,29.2,20.1,29.7C968.1,263.5,971.5,251.7,969.8,232.7z M457.3,232.7c2.1-18.4-2.6-28.7-20.5-29.2
		c-18.4-0.5-21.8,9.7-21,28.2c0.4,16.4-1.3,32.2,20.1,31.7C455.2,262.9,458.6,251.7,457.3,232.7z M815.8,74.6
		c-1.3,17.9,2.1,29.7,20.1,29.7c17.5,0,21.4-9.7,21.4-28.2c0-18.9-5.6-27.1-22.2-27.1C818.4,49,813.2,57.2,815.8,74.6z M571.1,76.6
		c1.7-17.4-1.7-27.6-18.8-27.6s-22.2,8.7-21.8,27.6c0,16.9,3,27.1,19.7,27.1C567.3,104.3,573.7,96.1,571.1,76.6z M515.1,75.6
		c1.7-17.9-4.3-26.1-20.1-26.6c-18-0.5-21.4,10.7-21.4,28.7s4.7,26.1,21,26.6C512.1,104.8,516.8,94,515.1,75.6z M416.3,77.2
		c-0.9,16.9,3,27.1,20.1,27.1c17.5,0.5,21.8-9.2,21.8-27.6c0-18.9-5.1-28.2-22.2-27.6C418.8,49.5,415.4,60.3,416.3,77.2z M628,76.1
		c2.6-17.9-3-27.1-20.5-27.1c-16.3,0-20.5,9.7-20.5,26.6c0,18.4,4.3,28.7,21.8,28.7C625,104.3,629.7,95.1,628,76.1z M645.1,76.6
		c-1.7,17.9,3,27.6,19.7,27.6c17.5,0.5,22.2-8.7,21.8-27.6c-0.4-16.9-3.4-27.1-20.1-27.6C649,49,643,57.7,645.1,76.6z M742.2,77.7
		c2.1-18.9-3-28.7-20.5-28.7c-16.7,0-20.1,9.7-20.1,27.1c0,16.4,1.3,28.2,18.8,28.2C736.2,104.3,744.8,98.1,742.2,77.7z M758,75.1
		c-1.3,17.4,2.6,29.2,20.5,29.2c15.8,0,21-8.2,21-26.1c0-17.4-2.1-29.7-20.5-29.2C763.6,49.5,756.3,56.7,758,75.1z M913.3,76.1
		c2.1-18.4-3.4-26.6-20.1-27.1c-18,0-21,10.7-21.4,28.7c0,17.9,4.7,26.1,20.5,26.6C910.7,104.8,915.5,94,913.3,76.1z M969.8,78.2
		c1.7-17.9-1.7-29.2-20.1-28.7c-15.8,0.5-21,8.2-21,26.1s3,29.2,21,29.2C965.5,104.3,971.5,96.1,969.8,78.2z M856.9,147.8
		c2.6-16.9-4.3-25.1-20.1-25.6c-15.4,0-21.4,7.7-21.8,25.6c-0.9,21.5,8.6,25.1,23.5,26.1C854.7,175.4,858.6,165.2,856.9,147.8z
		 M526.6,154.4c6.4,6.7,12.4,17.4,19.7,18.9c14.1,2.6,26.5-1.5,26.1-25.1c-0.4-18.4-5.6-26.1-21.4-26.1
		C534.8,122.2,528.8,130.4,526.6,154.4z M663.9,172.9c15,2.6,22.7-4.6,22.7-25.1c0-18.9-6.8-25.1-21.8-25.6
		c-18.4-0.5-20.1,12.3-20.5,29.7C643.8,168.3,649,175.4,663.9,172.9z M798.7,147.3c2.6-17.9-5.1-24.6-20.1-25.1
		c-15.8-0.5-21,8.2-21,26.1c0,19.4,8.1,24.1,22.2,24.6C794.8,173.4,800.8,165.7,798.7,147.3z M742.2,147.8
		c2.6-18.4-4.7-25.6-20.1-25.6c-14.1,0-20.5,6.1-21,23.5c-0.4,20,5.6,27.6,22.2,27.1C737.9,173.4,744.4,166.2,742.2,147.8z
		 M627.6,146.8c3.4-16.9-2.6-25.1-18.8-24.6c-14.5,0.5-22.2,4.6-22.2,24.6c0,20,6.8,26.6,23.1,26.6
		C624.6,173.4,630.1,165.7,627.6,146.8z M905.6,259.4c1.7-0.5,3.8-0.5,5.6-1c0-16.4,0.9-33.3-0.9-49.6c-0.4-2-12.8-2.6-22.2-4.6
		C894.9,226.1,900.5,242.5,905.6,259.4z M498.4,202.6c-10.7,3.6-20.5,4.1-21,7.2c-2.6,15.4-2.6,31.7-3.4,47.6c2.6,0.5,5.6,1,8.1,1.5
		C486.4,243,491.1,226.6,498.4,202.6z"/>
	<path class="st0" d="M694.3,1085.4c-160.8,0-322.1,0-482.9,0c-29.1,0-29.1,0-29.1-35.3c0-212.9,0-426.3,0-639.3
		c0-10.2-1.7-21.5,1.3-30.2c2.6-7.7,10.3-17.9,15.8-17.9c49.2-1,98.4-2,147.6,0.5c29.9,1.5,55.2,21.5,73.1,48.1
		c45.8,68.1,103.5,90.1,175.4,85c80.4-5.6,160.8-2,241.3-1c40.2,0.5,75.7-13.8,100.9-50.2c45.8-66.5,102.2-94.2,173.2-83.9
		c22.7,3.1,45.8,1.5,68.4,0c19.7-1.5,26.1,7.2,26.1,30.7c-0.4,137.2-0.4,274.3-0.4,412c0,80.9,0,161.7,0,243.1
		c0,38.9,0,38.9-31.7,38.9C1013.4,1085.4,853.9,1085.4,694.3,1085.4z M301.2,708.2c-29.5,35.3-56.5,67-84.7,100.3
		c22.7,27.1,46.2,55.3,70.6,82.4c3.8,4.1,15.4,4.6,19.2,0.5c21.8-24.1,42.8-49.6,63.3-75.2c3.4-4.1,5.1-15.9,3-18.9
		C348.7,766.1,323.4,735.9,301.2,708.2z M593.4,1024c3.4-2.6,6.8-4.6,9-7.2c21.8-26.1,43.6-51.2,64.2-78.3c3-4.1,1.3-18.9-2.6-24.6
		c-18.8-24.6-39.4-47.1-58.6-71.1c-8.6-10.7-15.4-11.8-24.8-0.5c-19.2,24.1-38.9,47.6-59,70.6c-9.4,10.7-9.4,18.9,0,29.7
		c20.5,23.5,40.2,48.1,60.7,72.2C585.7,1018.4,589.5,1020.4,593.4,1024z M474.9,685.2c-2.1-4.1-3.4-8.2-5.6-10.7
		c-21.8-26.6-43.6-53.7-66.7-78.8c-3-3.6-14.5-1-18.4,3.1c-21,23-40.2,47.6-60.7,71.1c-9.4,10.7-9.4,18.9,0,29.7
		c20.1,23,39.8,46.1,59,70.1c8.6,10.7,15.4,12.3,24.8,0.5c19.7-24.6,40.2-48.1,59.9-72.2C470.2,694.4,472.3,689.8,474.9,685.2z
		 M214.4,566.5c23.5,28.2,47.5,56.8,72.3,84.5c3,3.6,14.1,3.1,17.5-0.5c22.2-25.1,44.1-50.7,65-77.3c3-3.6,3.8-15.9,1.3-18.9
		c-23.5-30.7-47.9-59.9-73.1-90.6C269.1,498.4,243,530.6,214.4,566.5z M809.8,803.9c27.8,32.8,52.6,62.4,78.7,91.1
		c2.6,2.6,12.4,0.5,15.4-3.6c21.8-24.6,43.2-49.6,63.3-75.7c3.4-4.6,3.8-18.4,0.9-22.5c-20.5-26.6-42.3-52.7-64.6-77.3
		c-3-3.6-13.3-4.6-15.8-1.5C862,742.5,837.2,771.7,809.8,803.9z M593.4,588.5c-3,2.6-5.6,4.1-7.7,6.1
		c-22.2,26.1-44.9,52.2-66.3,79.8c-3,4.1-1.7,17.9,2.1,23c19.2,25.1,40.2,48.6,59.9,72.7c7.7,9.7,14.1,11.8,23.1,1
		c19.7-24.6,39.8-48.6,60.3-72.2c9.8-11.3,8.1-18.9-0.9-29.7c-20.1-23-39.4-47.1-59-70.1C601.9,595.1,597.6,592,593.4,588.5z
		 M474.9,928.3c-2.6-4.6-4.3-9.2-6.8-12.8c-21-25.6-41.9-51.2-63.7-75.2c-3.8-4.1-16.3-2.6-20.5,2c-21,23-40.6,48.1-61.2,71.7
		c-8.6,10.2-8.1,17.9,0.4,27.6c20.5,23.5,40.6,47.6,60.3,72.2c8.1,10.2,14.5,10.7,23.1,0c19.2-24.1,39.4-47.1,58.6-70.6
		C468.9,939.1,471.4,933.9,474.9,928.3z M696.9,703.1c-27.8,33.3-53,62.4-76.6,92.1c-2.6,3.6-1.3,16.4,2.1,21
		c20.1,25.6,40.6,50.7,62,73.7c3.8,4.1,16.7,4.6,20.5,0.5c22.2-24.1,43.2-49.6,63.7-75.7c3-4.1,4.3-15.9,1.7-18.9
		C747.3,765,723,735.4,696.9,703.1z M1087.4,662.2c27.4-32.2,52.2-61.4,75.7-91.6c2.6-3.6,0.9-16.4-2.6-21
		c-20.5-26.1-41.5-51.7-63.3-75.7c-3.4-3.6-14.1-4.1-17.5-1c-22.2,25.1-44.1,51.2-65,77.8c-3,4.1-4.7,15.9-2.1,18.9
		C1036.5,600.2,1061.3,629.9,1087.4,662.2z M791.4,788.1c27.8-34.3,51.8-63.5,74.9-93.7c3-3.6,2.6-16.9-0.9-21
		c-21-26.6-42.8-52.7-65.4-77.3c-3-3.6-14.1-3.1-17.1,1c-21.8,24.6-43.2,49.6-63.3,76.3c-3.4,4.6-3.8,18.4-0.4,23
		C740.9,725.6,764.5,754.3,791.4,788.1z M495.4,900.2c4.7-4.1,9.8-7.2,13.7-11.8c19.7-23.5,38.9-47.1,59-70.1
		c8.6-9.7,8.6-17.9,0-27.6c-20.5-23.5-40.6-47.6-60.3-72.2c-8.6-10.2-15-10.2-23.1,0c-19.7,24.6-39.8,48.6-60.3,72.2
		c-8.6,9.7-9,17.4-0.4,27.6c20.5,23.5,40.6,48.1,60.7,72.2C487.3,893.5,491.1,896.1,495.4,900.2z M990.7,583.9
		c-26.9,32.8-51.8,61.9-75.3,92.1c-2.6,3.6-0.9,16.4,2.6,20.5c20.1,25.6,41.1,49.6,61.6,74.7c7.7,9.2,13.7,9.7,21.4,0
		c20.5-25.1,41.5-49.1,61.6-74.2c3.4-4.6,5.1-17.4,2.6-20.5C1042.1,645.8,1017.3,616.1,990.7,583.9z M1174.2,803.9
		c-2.1-3.6-3-7.2-5.1-9.2c-22.2-26.6-44.1-53.7-67.2-78.8c-3-3.6-15-1.5-18.8,2.6c-21,23-40.6,48.1-61.2,71.7
		c-8.6,9.7-9,17.9-0.4,27.6c20.5,24.1,40.6,48.1,60.3,72.7c8.1,10.2,15,10.2,23.1,0c20.5-25.1,41.5-49.1,62-74.2
		C1170,812.6,1171.7,808,1174.2,803.9z M871.8,929.3c-1.3-3.6-2.1-7.2-3.8-9.2c-23.1-27.6-45.8-55.8-69.3-82.9
		c-2.6-2.6-12.4-1-15.8,2.6c-21.8,24.6-42.3,50.2-63.7,74.7c-7.7,9.2-7.7,16.4,0,25.6c21,24.1,41.5,48.6,61.6,74.2
		c8.6,10.7,15,9.2,22.7-1c19.2-24.1,38.9-47.1,58.6-70.6C865.8,939.1,868.4,934.5,871.8,929.3z M990.3,824.4
		c-26.9,33.8-50.9,63-73.6,93.2c-3,4.1-1.7,17.9,1.7,22.5c19.7,25.6,41.1,49.6,61.2,74.7c7.7,9.7,14.1,8.7,21.4,0
		c20.5-25.1,41.5-49.1,61.2-74.7c3.4-4.6,3.4-20,0-24.6C1040.8,885.8,1017.7,858.2,990.3,824.4z M495.4,661.1c3-2.6,6-3.6,7.7-6.1
		c22.7-27.1,45.8-53.7,67.6-81.4c2.6-3.1,3-12.8,0.9-15.4c-9.8-13.3-19.2-29.7-32.1-36.3c-21.8-11.3-46.6-23-68.9-20.5
		c-15,2-28.2,28.7-42.3,44c-0.9,1-2.1,2.6-3,3.6c-10.3,10.2-11.5,19.4-0.9,31.2c20.1,22.5,39.4,46.6,59,70.1
		C486.8,654.5,491.1,657.6,495.4,661.1z M891.9,661.7c5.1-5.1,9.8-8.7,13.7-13.3c15.8-18.4,31.2-37.4,46.6-55.8
		c22.2-26.6,20.5-25.1,0.9-53.2c-22.2-31.7-43.2-45-79.1-26.1c-19.2,10.2-38.5,16.9-53.5,36.3c-9.4,12.3-9.8,20.5,0,31.7
		c20.1,23,39.4,47.1,59,70.1C882.9,655,887.2,658.1,891.9,661.7z M693,516.3c-28.7-7.2-51.8,2-69.7,30.2
		c-7.7,11.8-9.8,18.9-0.4,29.7c20.5,23.5,40.6,47.6,60.3,72.2c8.6,10.7,15,9.2,23.1-1c19.2-24.1,38.9-47.6,59-70.1
		c9-10.2,9-17.4,0.9-29.7C746.9,516.8,722.1,509.6,693,516.3z M1072,445.2c-0.9-3.1-0.9-5.1-1.7-6.1c-13.7-16.4-25.2-36.9-41.5-46.1
		c-8.1-4.6-24.4,11.3-36.8,18.9c-4.7,3.1-8.6,8.7-12.8,13.3c-47.1,52.7-47.1,52.7,1.3,104.9c8.6,9.2,14.5,11.3,23.1,0.5
		c20.1-25.1,41.1-49.1,61.6-74.2C1068.2,452.8,1069.9,448.2,1072,445.2z M459,475.4c-32.1-31.2-57.3-56.3-83.4-79.3
		c-5.1-4.6-18-4.6-22.2,0.5c-13.3,14.3-24.4,32.2-35.9,49.1c-0.4,1,3.4,7.2,5.6,10.2c21,25.6,41.9,51.2,64.2,75.2
		c3.4,3.6,13.7,4.6,17.5,1C421.4,516.3,437.7,497.9,459,475.4z M1170,1054.2c-26.1-33.3-50.9-65.5-71.4-91.6
		c-26.9,31.2-52.6,61.4-78.3,91.6C1069,1054.2,1119.9,1054.2,1170,1054.2z M571.5,1054.2c1.3-2.6,3-5.1,4.3-7.7
		c-24.4-28.2-48.3-56.3-73.1-83.9c-2.6-2.6-10.7-3.1-12.8-1c-24.8,28.2-49.2,57.8-73.6,86.5c0.9,2,1.7,4.1,2.6,6.1
		C470.2,1054.2,521.1,1054.2,571.5,1054.2z M771.3,1054.2c0.9-2,1.3-4.6,2.1-6.7c-24-28.7-47.9-57.8-72.3-86
		c-2.1-2.6-10.3-2-12.8,0.5c-24.4,28.2-47.9,56.8-71.9,85.5c0.9,2,1.7,4.1,2.1,6.1C669.5,1054.2,720.4,1054.2,771.3,1054.2z
		 M217.4,1047.1c1.3,2,2.1,4.6,3.4,6.7c50.9,0,101.4,0,158.7,0c-28.7-34.3-52.2-63.5-76.6-91.6c-2.1-2.6-10.3-2.6-12.8,0
		C265.7,989.7,241.7,1018.4,217.4,1047.1z M814.5,1045c1.7,3.1,3,6.1,4.7,8.7c50.9,0,101.4,0,158.7,0
		c-28.7-34.3-52.2-63.5-76.6-91.6c-2.6-2.6-10.3-3.1-12.8-0.5C863.3,988.7,838.9,1016.9,814.5,1045z M203.2,593.6
		c0,63,0,118.2,0,181.2c26.5-31.7,48.8-57.3,70.2-83.9c1.7-2.6,1.7-10.7-0.4-13.3C251.6,651.4,229.8,625.3,203.2,593.6z
		 M202.8,1018.9c20.1-23.5,35.9-41.5,50.9-59.9c31.2-37.4,26.9-29.7,0.4-61.4c-15.4-18.9-31.2-36.9-47.1-55.3
		c-1.7,1.5-3,2.6-4.7,4.1C202.8,901.2,202.8,956,202.8,1018.9z M1181.9,767.1c0-56.3,0-111.1,0-166.3
		c-25.2,29.7-49.2,56.8-70.6,81.9C1134.5,710.3,1157.6,737.9,1181.9,767.1z M1182.4,1010.7c0-55.3,0-110,0-165.3
		c-24.4,29.2-47.5,56.8-68.9,82.4C1134.9,952.9,1158,981,1182.4,1010.7z M201.5,524c2.6,1.5,4.7,2.6,7.3,4.1
		c21-25.6,42.3-51.2,63.3-77.8c2.6-3.1,2.6-13.8,0-16.9c-12.8-16.9-26.1-33.8-40.6-48.1c-10.7-10.7-28.7-5.6-29.1,7.7
		C200.7,436.5,201.5,480,201.5,524z M1177.7,528.1c2.6-1,4.7-2.6,7.3-3.6c0-39.4,0.4-78.8-0.4-118.7c0-8.2-3.8-22-8.1-23
		c-8.1-2-19.2,0-25.7,5.6c-13.3,12.3-24.8,27.6-36.4,43c-3,3.6-4.3,14.3-2.1,17.4C1133.6,475.9,1155.9,502,1177.7,528.1z
		 M322.6,392.4c-0.9-2.6-2.1-5.1-3-8.2c-16.7,0-33.8,0-50.5,0c-0.9,2-1.7,4.1-2.6,6.1c9,9.7,18,26.6,27.4,26.6
		C303.3,417.5,312.8,401.1,322.6,392.4z M1066.9,384.2c-0.9,2.6-1.7,5.6-2.6,8.2c9.8,8.7,19.2,24.6,29.1,24.6
		c8.6,0,17.1-17.4,26.1-27.1c-1.3-2-2.1-3.6-3.4-5.6C1099.4,384.2,1083.1,384.2,1066.9,384.2z"/>
	<path class="st0" d="M1298.7,576.2c9.8,1.5,19.2,4.1,29.1,4.1c14.1,0,21,6.1,21,23.5c-0.4,61.4-0.4,122.8,0,184.3
		c0,17.9-7.3,23.5-21.4,23.5c-9.4,0-18.8,2.6-27.8,3.6c-0.4,3.6-0.4,7.2-0.9,10.2c8.6,1.5,17.1,5.1,25.7,5.1
		c17.1-0.5,24.4,6.7,24.4,28.2c-0.9,67.6,0.4,134.6-0.9,202.2c0,8.2-7.7,23-12.4,23.5c-37.6,2-75.3,1-112.1,1
		c-7.7-38.9-5.6-41.5,23.1-42.5c7.7-0.5,15.4-2.6,23.1-4.1c0-3.6,0.4-6.7,0.4-10.2c-9.4-1.5-18.8-4.1-28.2-3.6
		c-13.3,0-22.2-4.1-22.2-22.5c0-18.4,9-22,22.2-22c9,0,18.4-2.6,27.4-4.1c0-3.6,0-7.2,0-10.7c-10.3-1.5-20.5-3.6-30.8-4.1
		c-13.7,0-19.2-7.7-19.2-23.5c0-15.4,7.3-21,18.8-21.5c9.8-0.5,20.1-1.5,29.9-2.6c0-3.6,0.4-7.2,0.4-10.7
		c-9.4-1.5-18.8-5.1-27.8-4.6c-15.8,0.5-21.8-7.2-21.8-25.6c0.4-161.7,0.4-324,0-485.7c0-16.4,4.3-25.6,19.7-25.1
		c29.9,0.5,59.9,0.5,89.8,0c13.7,0,19.2,7.2,19.2,23c0,51.2,0,102.4,0,153.5c0,16.4-6.4,23-19.7,23c-10.3,0-20.1,2-30.4,3.1
		C1299.1,568,1299.1,572.1,1298.7,576.2z"/>
	<path class="st0" d="M117.7,914c10.3,0.5,20.5,1.5,30.8,1.5c12.4,0.5,18,6.7,17.5,22c-0.4,14.8-4.7,22-17.5,22.5
		c-10.3,0.5-21,2.6-31.2,3.6c0,4.1,0,7.7-0.4,11.8c9.4,1.5,18.8,4.1,28.7,4.1c13.7,0,21,5.1,21,23.5c-0.4,17.9-9,20.5-21,21
		c-9,0-18.4,2-27.4,3.1c0,3.6,0,7.2-0.4,11.3c9.4,1.5,18.8,3.6,27.8,3.6c12.8,0,20.5,4.1,20.5,21.5s-7.7,22-20.1,21.5
		c-28.7,0-56.9-0.5-85.6,0.5c-17.1,0.5-22.2-8.7-22.2-27.6c0.4-66.5,0.4-133.1,0-199.6c0-19.4,6.4-28.2,22.7-27.6
		c9,0,18-3.1,26.9-4.6c0-3.6,0-7.2,0-10.7c-9.8-1.5-19.2-4.1-29.1-4.1c-14.1,0-20.5-6.7-20.5-24.6c0.4-60.4,0.4-121.3,0-181.7
		c0-19.4,6.8-25.6,21.8-25.1c9,0,18.4-2.6,27.4-4.1c0-3.6,0.4-7.2,0.4-10.7c-9.4-1.5-18.8-4.6-28.2-4.6
		c-15.4,0.5-21.8-7.2-21.4-25.6C39,485.1,39,435.9,39,386.3c0-18.4,6-26.1,21.8-25.6c27.8,1,55.6,1,83.4,0
		c15.4-0.5,21.8,6.1,21.8,25.1c-0.4,162.2-0.4,324,0,486.2c0,18.9-5.6,26.1-21.4,25.6c-9.4-0.5-18.8,2.6-28.7,3.6
		C116.4,905.8,117.3,909.9,117.7,914z"/>
	<path class="st0" d="M692.2,1103.9c160.8,0,322.1,0,482.9,0c29.5,0,29.5,0.5,29.5,35.8c0,55.3-0.4,111.1,0.4,166.3
		c0.4,20.5-3.8,28.7-22.2,28.7c-325.5-0.5-651.5-0.5-977,0c-18.4,0-24.8-5.6-24.4-28.7c1.3-57.3,1.3-114.1,0-171.5
		c-0.4-23.5,5.6-30.7,25.7-30.7C368.4,1104.4,530.5,1103.9,692.2,1103.9z M692.2,1314.2c56.5,0,112.5,0,169,0c97.5,0,195.1,0,293,0
		c27.8,0,27.8,0,27.8-34.3c0-38.4,0-76.8,0-115.2c0-41.5,0-42-35.5-42c-264.4,0-528.7,0-793.1,0c-39.4,0-78.3,0-117.6,0
		c-32.5,0-32.5,0.5-32.5,37.9c0,38.4,0,76.8,0,115.2s0,38.4,31.7,38.4C387.2,1314.2,539.5,1314.2,692.2,1314.2z"/>
	<path class="st0" d="M1254.2,1104.4c26.9,0,54.3-1,81.7,1c4.7,0.5,12.4,12.3,12.4,18.9c0.9,63,1.3,125.9,0,188.9
		c0,7.2-10.3,20-15.8,20c-13.3,0.5-33.4,12.3-38.9-12.3c-15.4-68.1-27.8-137.2-41.5-205.8C1251.7,1113.1,1253,1110.5,1254.2,1104.4z
		"/>
	<path class="st0" d="M134,1103.9c0,8.7,0.9,14.8,0,20.5c-12.8,63-26.1,125.4-38.5,188.4c-6,30.7-25.7,20.5-41.1,21
		c-17.1,1-16.3-14.8-16.3-28.7c0-58.9,0.4-117.2,0-176.1c0-18.9,5.6-26.1,21.4-25.1C83.9,1104.9,108.7,1103.9,134,1103.9z"/>
	<path class="st0" d="M693,390.9c-45.8,0-91.1,0-136.9,0c-31.7,0-48.3-12.3-52.2-49.6c-3.8-34.8-2.6-71.1,2.1-105.9
		c3.4-27.6,22.2-43,46.6-43c94.1-0.5,188.2-0.5,282.3,0c24.8,0,39.8,16.9,47.1,44c9.8,37.9,9.4,75.7-0.4,113.1
		c-7.7,29.7-21,41.5-47.5,41.5C787.1,391.4,740.1,390.9,693,390.9z M693,373.5c0,0.5,0,0.5,0,1c45.3,0,91.1-0.5,136.5,0
		c22.2,0.5,36.8-11.3,39.4-36.3c3-28.2,4.7-57.8,1.7-86c-3.4-31.2-18-44-44.5-44c-89-0.5-177.9-0.5-266.9,0
		c-24.4,0-40.2,14.3-43.2,43c-2.6,28.2-2.1,57.8,0.9,86c2.6,24.6,16.3,37.4,38.9,36.9C601.9,372.5,647.3,373.5,693,373.5z"/>
	<path class="st0" d="M291.4,122.2c29.1,0,58.6,1,87.7-0.5c21.4-1,21.8,14.3,21.8,32.8c0,18.4-2.1,31.2-21.8,30.7
		c-59-1-118.5-1-177.5,0c-21.8,0.5-19.7-15.4-19.7-32.2c0-16.4-3-33.3,19.2-31.7C231.1,123.7,261.4,122.2,291.4,122.2z"/>
	<path class="st0" d="M1094.3,185.7c-29.9,0-59.9-1-89.4,0.5c-20.5,1-19.2-14.3-18.4-30.2c0.4-14.8-5.1-33.8,17.5-33.8
		c60.3,0.5,120.6,0.5,180.9,0c22.7,0,19.2,18.4,20.1,35.3c0.9,18.4-3.8,28.7-21.4,28.2C1153.7,184.6,1124.2,185.7,1094.3,185.7z"/>
	<path class="st0" d="M400.4,365.3c-64.2-36.9-128.8-17.4-192.1-22c-27.8-2-27.4-1.5-26.9-35.3c0.4-20.5,7.3-26.1,23.1-26.1
		c58.2,0.5,116.3,0.5,175-0.5c15.4,0,22.2,6.7,21.4,25.1C400,324.9,400.4,343.3,400.4,365.3z"/>
	<path class="st0" d="M985.2,357.1c2.6,4.6,1.7,3.6,1.7,3.1c-6-77.3-6-77.3,58.2-77.8c45.8,0,91.1,0.5,136.9-0.5
		c17.5-0.5,24,6.7,23.5,28.2c-0.4,21-2.6,34.3-24,33.8c-33.4-1.5-67.2-2-100.5,0.5C1050.2,345.9,1019.8,352,985.2,357.1z"/>
	<path class="st0" d="M290.1,262.4c-29.9,0-59.9-1-89.4,0.5c-17.5,0.5-20.1-10.2-19.2-27.1c0.9-16.4-1.7-32.2,20.1-31.7
		c59.9,1,119.3,1,179.2,0c18.4-0.5,20.5,10.7,20.5,28.2c0,17.9-0.9,31.7-21,30.7C350,261.9,320,262.9,290.1,262.4
		C290.1,262.9,290.1,262.4,290.1,262.4z"/>
	<path class="st0" d="M1094.3,262.9c-29.9,0-59.9-1-89.8,0.5c-21,1-18-15.4-18.4-30.2c-0.4-15.4-0.9-29.2,18-28.7
		c59.9,0.5,119.8,1,179.7,0c19.2,0,21.8,11.8,21.8,30.7c0,18.4-3,29.2-21,28.7C1154.1,261.9,1124.2,262.9,1094.3,262.9z"/>
	<path class="st0" d="M288.8,103.8c-29.9,0-59.9-0.5-89.4,0.5c-13.3,0.5-18.4-5.6-17.1-21C183.6,69.5,178,50,198.5,50
		c62,0,123.6,0,185.6-0.5c17.1,0,16.7,13.8,16.7,28.2c0,14.8-1.7,27.1-18,26.6C351.2,103.3,320,103.8,288.8,103.8z"/>
	<path class="st0" d="M1096.4,49.5c29.1,0,58.2,0.5,87.3,0c15.4-0.5,21.4,7.2,21,25.6c-0.4,17.4-2.1,29.2-20.5,29.2
		c-59-0.5-118.1-0.5-176.7,0c-17.5,0-21.8-10.2-21.4-28.7c0-17.4,4.7-27.1,21-26.6C1036.9,50,1066.9,49.5,1096.4,49.5z"/>
	<path class="st0" d="M1230.3,1105.4c2.6,7.2,5.6,14.3,7.3,22c12.4,59.4,24,118.7,36.8,178.1c4.3,20,0,28.2-17.5,28.7
		c-35.5,1.5-36.4,1.5-36.4-39.9c0-53.7-0.4-107,0-160.7c0-9.2,2.6-18.4,3.8-27.6C1226.4,1105.9,1228.1,1105.9,1230.3,1105.4z"/>
	<path class="st0" d="M1284.6,185.7c-14.1,0-28.7-1.5-42.8,0.5c-19.7,2-22.7-10.2-21.8-29.2c0.4-17.4-1.3-34.8,20.5-34.3
		c29.9,1,59.5,0.5,89.4,0c21-0.5,18.8,16.9,19.2,33.3c0,16.9-0.9,31.2-20.1,30.2C1314.5,184.6,1299.6,185.7,1284.6,185.7z"/>
	<path class="st0" d="M101.9,185.7c-13.7,0-26.9-1-40.6,0C42,187.2,38.6,174.9,39,156c0-18.4,0-34.3,21.8-33.8c27.8,1,55.6,1,83,0
		c18.4-0.5,23.1,10.7,22.2,30.2c-0.4,17.9,0.4,34.8-21.8,33.3C130.1,184.6,116,185.7,101.9,185.7L101.9,185.7z"/>
	<path class="st0" d="M1220.4,281.4c39.4,0,76.6-0.5,113.4,0c16.7,0.5,15.4,16.4,15,29.7c-0.4,13.3,2.6,30.2-14.5,30.7
		c-33.4,1-66.7,1-100.1-0.5c-4.7,0-12.4-8.7-13.3-14.8C1219.2,313.6,1220.4,299.3,1220.4,281.4z"/>
	<path class="st0" d="M107,1334.2c16.7-80.4,31.7-154.1,47.1-227.8c2.6,0,5.1,0,7.7,0c1.3,6.1,4.3,12.3,4.3,18.9
		c0.4,62.4,0,124.4,0.4,186.8c0,16.9-5.6,23-18.8,22.5C135.7,1333.7,124.5,1334.2,107,1334.2z"/>
	<path class="st0" d="M102.7,342.8c-15,0-29.9,0-44.9,0c-21,0-18.4-17.4-18.8-33.8c-0.4-16.9,2.6-28.2,19.7-28.2
		c29.9,0.5,59.9,0.5,89.4,0c22.7-0.5,16.7,19.4,17.5,34.3c1.3,15.9,0,29.2-18.4,27.6C132.7,341.8,117.7,342.8,102.7,342.8
		L102.7,342.8z"/>
	<path class="st0" d="M1283.8,262.9c-12.8,0-25.7-1-38.1,0c-17.5,1.5-26.1-3.6-25.7-27.6c0.4-22.5,5.1-32.8,25.2-31.7
		c28.2,1.5,56.9,1,85.1,0c19.2-0.5,19.2,14.3,19.2,30.7c0,15.9-1.3,29.2-18.8,28.2C1315,262.4,1299.1,262.9,1283.8,262.9z"/>
	<path class="st0" d="M103.2,262.9c-12.8,0-25.7-1-38.5,0c-19.7,2-26.1-7.2-26.1-30.7s8.6-29.2,26.1-28.7c26.9,1,53.9,1,80.8,0
		c18.4-0.5,20.5,11.8,20.5,29.7c0,17.4-2.1,30.7-20.5,29.7C131.4,261.9,117.3,262.9,103.2,262.9L103.2,262.9z"/>
	<path class="st0" d="M1284.6,103.8c-15,0-29.9-0.5-44.9,0c-17.1,1-19.7-11.3-19.7-27.6c0-17.4,3.8-27.1,20.5-27.1
		c29.9,0.5,59.5,0.5,89.4,0c17.5-0.5,19.2,11.8,19.2,28.2c0,16.9-3.4,28.2-20.1,27.1C1314.5,103.3,1299.6,103.8,1284.6,103.8z"/>
	<path class="st0" d="M103.2,104.3c-15,0-29.9-0.5-44.9,0c-15.4,0.5-19.7-8.7-19.2-25.6c0.4-15.4,0-29.7,18.4-29.2
		c30.4,0.5,61.2,0.5,91.5,0c16.7,0,17.1,13.3,17.1,27.6c0,14.8-1.7,27.1-18,26.6C133.1,103.3,118.1,103.8,103.2,104.3
		C103.2,103.8,103.2,103.8,103.2,104.3z"/>
	<path class="st0" d="M929.1,423.1c0-41.5,0-82.4,0-123.9c0-19.4,12.8-16.9,23.1-17.4c10.7-1,18,3.1,17.5,17.9
		c-0.4,23.5,4.3,49.1-1.3,70.6c-5.1,21-21,37.9-32.1,56.3C933.8,425.7,931.7,424.2,929.1,423.1z"/>
	<path class="st0" d="M457.8,426.2c-25.2-23.5-47.5-41.5-41.9-80.9c1.7-11.8,0.9-24.1,0-35.8c-1.7-20.5,4.3-29.2,22.2-29.2
		c19.2,0,19.7,13.3,19.2,29.7C457.3,347.4,457.8,384.8,457.8,426.2z"/>
	<path class="st0" d="M913.3,287c0,8.7,0,17.4,0,25.6c0,33.3,0,66,0,99.3c0,41.5-3,45.6-37.2,58.3c-11.5-21.5-6.8-61.4,2.6-82.4
		c11.1-23.5,16.7-51.2,24-76.8c2.1-7.7,2.1-16.4,3-24.6C908.2,286.5,910.7,287,913.3,287z"/>
	<path class="st0" d="M518.1,467.7c-32.9-1.5-44.1-13.8-44.1-43c-0.4-38.4,0-76.8,0-114.6c0-7.2,1.3-14.3,6-22
		c1.3,5.6,3,11.8,3.4,17.4c2.6,32.8,11.1,61.4,26.5,89.6C519.4,413.4,515.5,442.6,518.1,467.7z"/>
	<path class="st0" d="M686.2,442.6c0.9,18.4,1.7,34.3-20.5,34.3c-20.1,0-21-13.8-20.5-31.2c0.4-17.4-3-36.9,20.5-36.3
		C687.5,408.8,687,425.2,686.2,442.6z"/>
	<path class="st0" d="M814.1,442.6c-2.1-20,0.4-34.3,22.2-33.8c22.2,0.5,17.5,18.4,18,33.8c0.4,17.4,1.7,34.3-20.5,34.3
		C811.5,476.9,812.8,460.5,814.1,442.6z"/>
	<path class="st0" d="M531.8,442.6c-0.4-18.4-1.3-33.8,19.7-33.8c21.8-0.5,22.2,14.8,21.4,32.8c-0.9,16.4,3.8,35.3-19.2,35.8
		C530,477.4,531.3,459.5,531.8,442.6z"/>
	<path class="st0" d="M797.8,439.5c0.4,20.5,2.6,37.4-20.1,37.4c-22.2,0-20.5-16.9-20.5-34.3c0-17.9-1.7-33.8,20.5-33.8
		S799.5,424.7,797.8,439.5z"/>
	<path class="st0" d="M701.6,439c0.4-28.7,4.3-33.8,26.9-28.7c5.1,1,10.7,9.7,13.3,16.9c2.1,6.7,0,14.8,0.9,22.5
		c1.3,19.4-5.1,27.6-21.8,27.6c-17.5,0-19.7-11.8-19.2-28.2C701.6,445.7,701.6,442.1,701.6,439z"/>
	<path class="st0" d="M633.1,405.2c-3.8,28.2-5.6,49.1-10.7,69.1c-0.4,2.6-26.9,1-28.2-3.6c-4.7-16.9-7.3-37.4-3-53.2
		C593.8,410.4,614.3,410.4,633.1,405.2z"/>
	<path class="st0" d="M515.1,156.5c1.7,18.4-2.6,29.7-21.4,29.7c-21,0-19.7-15.9-20.1-32.2c0-17.4,0.9-31.7,21-31.7
		C516.4,121.7,515.9,138.1,515.1,156.5z"/>
	<path class="st0" d="M969.8,155.5c1.7,18.9-2.1,30.7-21.4,30.2c-21.4-0.5-19.2-16.4-19.7-33.3c-0.4-18.9,3-31.2,22.2-30.7
		C971.5,122.7,970.2,138.6,969.8,155.5z"/>
	<path class="st0" d="M457.3,159.6c1.7,16.9-3.8,26.1-21.4,26.1c-22.7,0-19.7-18.4-20.1-35.3c-0.4-17.9,3.4-29.2,21.4-28.7
		C459.9,122.7,457.8,140.1,457.3,159.6z"/>
	<path class="st0" d="M913.3,157.5c1.3,16.4-1.3,28.7-21,28.7c-22.2-0.5-19.7-17.4-20.5-34.3c-0.9-19.4,3.8-29.2,22.2-29.7
		C917.6,121.2,913.3,139.6,913.3,157.5z"/>
	<path class="st0" d="M969.8,232.7c1.7,18.9-1.7,31.2-21,30.7c-18.8-0.5-19.7-12.8-20.1-29.7c-0.4-18.9,2.6-30.2,21.8-29.7
		C968.5,204.1,971.5,215.3,969.8,232.7z"/>
	<path class="st0" d="M457.3,232.7c1.7,18.9-1.7,30.2-21.4,30.7c-21.4,0.5-19.2-14.8-20.1-31.7c-0.9-18.4,2.6-28.7,21-28.2
		C454.3,204.1,459,214.3,457.3,232.7z"/>
	<path class="st0" d="M815.8,74.6c-2.1-17.4,3-25.6,19.2-25.6c16.7,0,22.2,8.2,22.2,27.1c0,18.4-3.8,28.2-21.4,28.2
		C817.9,104.3,814.1,93,815.8,74.6z"/>
	<path class="st0" d="M571.1,76.6c2.6,19.4-3.8,27.6-21,27.6S530.5,94,530.5,77.2c-0.4-18.9,4.7-28.2,21.8-27.6
		C569.4,49,572.8,59.2,571.1,76.6z"/>
	<path class="st0" d="M515.1,75.6c1.7,17.9-3,28.7-20.5,28.7c-16.3-0.5-21-8.7-21-26.6S477,48.5,495,49
		C510.8,49.5,516.8,57.7,515.1,75.6z"/>
	<path class="st0" d="M416.3,77.2c-0.9-16.9,2.6-27.1,19.2-27.6c17.1-0.5,22.2,8.7,22.2,27.6c0,18.4-4.3,28.2-21.8,27.6
		C419.3,104.3,415.4,94,416.3,77.2z"/>
	<path class="st0" d="M628,76.1c2.1,18.9-3,28.2-19.2,28.2c-17.5,0-21.8-10.2-21.8-28.7c0-17.4,4.3-26.6,20.5-26.6
		C625,49,630.1,58.7,628,76.1z"/>
	<path class="st0" d="M645.1,76.6C643,58.2,649,49,666.5,49.5c16.7,0,20.1,10.2,20.1,27.6c0.4,18.9-4.7,28.2-21.8,27.6
		C648.1,103.8,643.4,94.6,645.1,76.6z"/>
	<path class="st0" d="M742.2,77.7c2.6,20.5-6,26.6-21.8,26.6c-17.5,0-18.8-11.8-18.8-28.2c0-16.9,3.4-27.1,20.1-27.1
		C739.2,49,744.4,58.7,742.2,77.7z"/>
	<path class="st0" d="M758,75.1c-1.7-18.9,5.6-25.6,21-26.1c18.4-0.5,20.5,11.8,20.5,29.2c0,17.9-5.1,26.1-21,26.1
		C760.6,104.3,756.8,93,758,75.1z"/>
	<path class="st0" d="M913.3,76.1c2.1,18.4-2.6,28.7-20.5,28.2c-16.3-0.5-21-8.7-20.5-26.6c0-17.9,3.4-28.7,21.4-28.7
		C909.9,49,915,57.7,913.3,76.1z"/>
	<path class="st0" d="M969.8,78.2c2.1,18.4-3.8,26.1-20.1,26.1c-18,0-21-11.3-21-29.2s5.1-26.1,21-26.1
		C967.6,49,971.5,60.3,969.8,78.2z"/>
	<path class="st0" d="M856.9,147.8c1.7,17.9-2.1,27.6-18.4,26.6c-15-1-24.4-4.6-23.5-26.1c0.4-18.4,6.4-26.1,21.8-25.6
		C852.6,122.2,859.4,130.4,856.9,147.8z"/>
	<path class="st0" d="M526.6,154.4c2.1-24.1,8.6-32.2,24.4-32.2s21,7.7,21.4,26.1c0.4,23.5-12,27.6-26.1,25.1
		C538.6,171.8,533,161.1,526.6,154.4z"/>
	<path class="st0" d="M663.9,172.9c-15,3.1-20.1-4.6-19.7-21c0.4-16.9,2.1-29.7,20.5-29.7c15,0.5,21.8,6.7,21.8,25.6
		C686.6,167.7,678.9,175.4,663.9,172.9z"/>
	<path class="st0" d="M798.7,147.3c2.1,18.4-3.8,26.1-18.8,25.6c-14.5,0-22.2-5.1-22.2-24.6c0-17.9,5.1-26.6,21-26.1
		C793.5,122.7,801.2,129.9,798.7,147.3z"/>
	<path class="st0" d="M742.2,147.8c2.1,18.4-4.7,25.1-18.8,25.6c-16.3,0.5-22.7-7.7-22.2-27.1c0.4-17.9,6.8-24.1,21-23.5
		C737.5,122.2,744.8,129.9,742.2,147.8z"/>
	<path class="st0" d="M627.6,146.8c2.6,18.4-3.4,26.1-18.4,26.1c-15.8,0-23.1-6.7-23.1-26.6c0-19.4,8.1-24.1,22.2-24.6
		C625.4,121.7,631,129.9,627.6,146.8z"/>
	<path class="st0" d="M905.6,259.4c-5.1-16.9-10.7-33.3-17.5-54.8c9.4,1.5,21.8,2,22.2,4.6c1.7,16.4,0.9,33.3,0.9,49.6
		C909.5,258.3,907.3,258.9,905.6,259.4z"/>
	<path class="st0" d="M498.4,202.6c-6.8,24.1-11.5,39.9-16.3,55.8c-2.6-0.5-5.6-1-8.1-1.5c0.9-15.9,0.9-31.7,3.4-47.6
		C477.9,207.2,487.7,206.1,498.4,202.6z"/>
	<path d="M692.2,1314.2c-152.7,0-305,0-457.7,0c-31.2,0-31.2,0-31.7-38.4c0-38.4,0-76.8,0-115.2c0-37.4,0-37.4,32.5-37.9
		c39.4,0,78.3,0,117.6,0c264.4,0,528.7,0,793.1,0c35.5,0,35.5,0,35.5,42c0,38.4,0.4,76.8,0,115.2c0,33.8-0.4,34.3-27.8,34.3
		c-97.5,0-195.1,0-293,0C804.7,1314.2,748.2,1314.2,692.2,1314.2z M692.6,1295.8c148.9,0,298.1-0.5,447,0.5
		c20.1,0,28.7-7.2,27.4-32.2c-1.3-26.1-0.4-52.7-0.4-79.3c0-42,0-42-35.9-42c-273.8,0-547.5,0-821.3,0c-23.5,0-47.1,0.5-70.6,0
		c-14.5,0-20.5,7.2-20.5,24.6c0.4,31.7,0,63,0,94.7c0,33.3,0.9,33.8,29.5,33.8C396.2,1295.8,544.2,1295.8,692.6,1295.8z"/>
	<path class="st0" d="M692.6,1295.8c-148.4,0-296.4,0-444.9,0c-28.7,0-29.1-1-29.5-33.8c0-31.7,0.4-63,0-94.7
		c-0.4-17.4,6-24.6,20.5-24.6c23.5,0.5,47.1,0,70.6,0c273.8,0,547.5,0,821.3,0c35.5,0,35.5,0,35.9,42c0,26.6-0.9,52.7,0.4,79.3
		c1.3,25.1-6.8,32.2-27.4,32.2C990.3,1295.3,841.5,1295.8,692.6,1295.8z"/>
</g>
</svg>
